<?xml version="1.0" encoding="UTF-8" standalone="no"?><!DOCTYPE svg PUBLIC "-//W3C//DTD SVG 1.1//EN" "http://www.w3.org/Graphics/SVG/1.1/DTD/svg11.dtd"><svg width="100%" height="100%" viewBox="0 0 357 98" version="1.1" xmlns="http://www.w3.org/2000/svg" xmlns:xlink="http://www.w3.org/1999/xlink" xml:space="preserve" xmlns:serif="http://www.serif.com/" style="fill-rule:evenodd;clip-rule:evenodd;stroke-linejoin:round;stroke-miterlimit:2;"><g id="AZM-r3-logo" serif:id="AZM r3 logo"><g><path d="M24.031,39.42c-7.772,0 -8.236,7.163 -8.2,10.749c0.041,3.992 -0.206,10.523 7.679,10.523c7.062,0 6.934,-8.535 6.9,-11.794c-0.033,-3.26 -1.224,-9.478 -6.379,-9.478m24.617,-14.343l-0.044,48.142l-13.974,0l-0.045,-2.518c-3.199,2.232 -8.844,2.515 -13.815,2.564c-12.518,0.124 -20.088,-12.427 -20.181,-21.553c-0.107,-10.593 4.396,-24.965 20.483,-24.965c4.144,0 10.137,0.063 12.822,1.584l-0.026,-3.285l14.78,0.031Z" style="fill:#e97825;fill-rule:nonzero;"/><path d="M121.328,37.685l-19.813,22.109l18.99,0.045l0.04,13.427l-38.214,-0.041l0.095,-12.545l19.247,-22.082l-18.578,-0.035l-0.02,-13.732l38.275,0l-0.022,12.854Z" style="fill:#e97825;fill-rule:nonzero;"/><path d="M250.407,73.122l-16.938,0.005c0.006,-8.551 -0.18,-18.92 -0.18,-26.99c-0,-2.573 -0.927,-5.838 -4.884,-5.799c-2.669,0.027 -4.609,2.077 -4.609,5.609c0,3.534 0.044,20.244 0.044,27.228l-17.007,-0.059c0.023,-6.891 0.038,-15.948 -0.03,-22.839c-0.03,-2.987 -0.281,-9.709 -5.067,-9.661c-2.209,0.022 -4.537,1.621 -4.54,5.536l-0.036,27.114l-17.004,-0.073l0.008,-48.73l17.607,0.059l0.004,6.762c2.911,-3.601 6.66,-6.138 10.986,-6.182c8.008,-0.082 11.906,3.201 13.703,7.915c3.171,-5.097 7.715,-8.728 13.053,-8.783c14.36,-0.145 15.046,11.154 15.147,21.283c0.088,8.799 -0.257,27.605 -0.257,27.605Z" style="fill:#e97825;fill-rule:nonzero;"/><path d="M356.49,73.266l-18.53,-0.024c0.018,-7.353 -0.116,-17.086 -0.19,-24.438c-0.034,-3.267 -0.373,-8.208 -5.528,-8.157c-2.301,0.022 -4.936,0.478 -4.936,4.668l-0.254,27.767l-16.753,0.082l0.077,-48.039l17.29,-0.037l-0.136,4.904c2.919,-2.725 6.399,-4.559 10.449,-4.598c15.095,-0.151 18.417,8.071 18.533,19.588c0.084,8.332 -0.022,28.284 -0.022,28.284Z" style="fill:#e97825;fill-rule:nonzero;"/><path d="M147.72,39.218c-7.772,-0 -8.236,7.205 -8.2,10.812c0.041,4.017 -0.206,10.588 7.679,10.588c7.062,-0 6.933,-8.587 6.9,-11.866c-0.033,-3.279 -1.224,-9.534 -6.379,-9.534m24.617,-14.429l-0.045,48.453l-13.974,0.024l-0.029,-2.779c-3.199,2.245 -8.859,2.728 -13.831,2.778c-12.517,0.125 -20.087,-12.502 -20.18,-21.681c-0.107,-10.655 4.396,-25.113 20.483,-25.113c4.143,-0 10.137,0.063 12.822,1.592l-0.026,-3.305l14.78,0.031Z" style="fill:#e97825;fill-rule:nonzero;"/><path d="M280.454,25.47c0.4,-0.322 0.943,-0.611 1.672,-0.837c3.99,-1.232 9.69,1.048 9.69,1.048c4.925,3.8 13.519,8.234 15.311,9.973c0.923,0.895 -1.342,2.793 -4.478,4.224c1.004,3.033 1.406,6.333 1.439,9.608c0.12,11.814 -4.672,23.78 -23.604,23.78c-21.222,-0 -23.511,-13.886 -23.604,-23.093c-0.034,-3.294 0.563,-6.791 1.932,-10.051c-3.416,-1.452 -6.008,-3.521 -5.031,-4.468c1.792,-1.739 10.386,-6.173 15.311,-9.973c-0,-0 5.7,-2.28 9.69,-1.048c0.729,0.226 1.272,0.515 1.672,0.837Zm-0.036,13.658c-7.476,-0 -7.651,8.061 -7.619,11.158c0.034,3.422 0.18,10.849 7.866,10.849c9.068,-0 7.873,-9.708 7.858,-11.257c-0.03,-2.935 -0.344,-10.75 -8.105,-10.75Z" style="fill:#e97825;"/></g><g id="alberto-gonzalez" serif:id="alberto gonzalez"><path d="M5.79,91.441c-2.055,0 -3.735,-1.798 -3.735,-3.853c0,-2.154 1.68,-3.912 3.735,-3.912c2.272,-0 3.813,1.778 3.813,3.912c0,2.075 -1.679,3.853 -3.813,3.853Zm5.829,1.601l-0,-10.947l-2.055,-0l-0,1.541l-0.04,0c-0.849,-1.245 -2.193,-1.837 -3.794,-1.837c-3.221,-0 -5.73,2.45 -5.73,5.947c-0,3.162 2.608,5.573 5.809,5.573c1.561,-0 2.945,-0.672 3.715,-1.976l0.04,-0l-0,1.699l2.055,-0Z" style="fill:#737373;fill-rule:nonzero;"/><rect x="14.998" y="78.42" width="2.055" height="14.622" style="fill:#737373;fill-rule:nonzero;"/><path d="M22.368,93.042l0,-1.581l0.04,0c0.909,1.225 2.371,1.858 3.952,1.858c3.082,-0 5.493,-2.688 5.493,-5.751c-0,-3.161 -2.569,-5.769 -5.671,-5.769c-1.482,-0 -2.865,0.612 -3.755,1.817l-0.039,0l-0,-5.196l-2.055,-0l-0,14.622l2.035,-0Zm3.695,-1.601c-2.094,0 -3.734,-1.738 -3.734,-3.912c-0,-2.075 1.679,-3.853 3.714,-3.853c2.115,-0 3.755,1.818 3.755,3.892c-0,2.135 -1.719,3.873 -3.735,3.873Z" style="fill:#737373;fill-rule:nonzero;"/><path d="M36.062,86.877c0.158,-1.877 1.837,-3.201 3.517,-3.201c1.759,-0 3.399,1.343 3.557,3.201l-7.074,-0Zm9.069,1.581c0.06,-0.376 0.06,-0.692 0.06,-1.028c-0,-3.142 -2.45,-5.631 -5.671,-5.631c-2.905,-0 -5.513,2.41 -5.513,5.868c-0,2.925 2.489,5.652 5.572,5.652c2.351,-0 4.406,-1.463 5.256,-3.715l-2.055,-0c-0.632,1.166 -1.838,1.837 -3.122,1.837c-1.68,0 -3.122,-1.165 -3.596,-2.983l9.069,-0Z" style="fill:#737373;fill-rule:nonzero;"/><path d="M49.933,93.042l0,-6.145c0,-1.838 0.909,-2.925 2.687,-2.984l0,-2.114c-1.442,0.079 -2.292,0.553 -2.786,1.284l-0.039,-0l-0,-0.988l-1.917,-0l0,10.947l2.055,-0Z" style="fill:#737373;fill-rule:nonzero;"/><path d="M57.56,93.042l0,-9.07l1.799,0l-0,-1.877l-1.799,-0l0,-3.675l-2.055,-0l0,3.675l-1.482,-0l0,1.877l1.482,0l0,9.07l2.055,-0Z" style="fill:#737373;fill-rule:nonzero;"/><path d="M72.617,87.647c0.04,-3.477 -2.806,-5.848 -5.829,-5.848c-3.359,-0 -5.987,2.47 -5.987,5.809c-0,3.082 2.747,5.711 5.829,5.711c3.498,-0 5.948,-2.747 5.987,-5.672Zm-2.055,-0.118c0,2.213 -1.758,3.912 -3.912,3.912c-2.075,0 -3.794,-1.818 -3.794,-3.892c0,-2.134 1.778,-3.873 3.833,-3.873c2.154,-0 3.873,1.719 3.873,3.853Z" style="fill:#737373;fill-rule:nonzero;"/><path d="M90.895,91.599c0,2.51 -1.324,3.873 -3.833,3.873c-1.344,0 -2.371,-0.494 -3.142,-1.58l-2.292,-0c0.929,2.134 2.905,3.458 5.414,3.458c3.715,-0 5.908,-2.194 5.908,-5.751l0,-9.504l-2.055,-0l0,1.265c-0.869,-0.969 -2.371,-1.561 -3.794,-1.561c-3.3,-0 -5.868,2.549 -5.868,5.848c-0,2.964 2.707,5.672 5.849,5.672c1.561,-0 2.924,-0.573 3.774,-1.72l0.039,0Zm-3.833,-0.158c-2.035,0 -3.774,-1.778 -3.774,-3.873c-0,-2.134 1.719,-3.892 3.754,-3.892c1.897,-0 3.853,1.324 3.853,3.892c0,1.779 -1.442,3.873 -3.833,3.873Z" style="fill:#737373;fill-rule:nonzero;"/><path d="M107.158,87.647c0.039,-3.477 -2.806,-5.848 -5.83,-5.848c-3.359,-0 -5.987,2.47 -5.987,5.809c0,3.082 2.747,5.711 5.829,5.711c3.498,-0 5.948,-2.747 5.988,-5.672Zm-2.055,-0.118c-0,2.213 -1.759,3.912 -3.913,3.912c-2.075,0 -3.794,-1.818 -3.794,-3.892c0,-2.134 1.779,-3.873 3.834,-3.873c2.153,-0 3.873,1.719 3.873,3.853Z" style="fill:#737373;fill-rule:nonzero;"/><path d="M119.586,93.042l0,-6.56c0,-3.024 -1.936,-4.683 -4.564,-4.683c-1.265,-0 -2.391,0.415 -3.201,1.462l-0.04,-0l0,-1.166l-1.916,-0l-0,10.947l2.055,-0l-0,-5.987c-0,-2.055 1.086,-3.379 2.885,-3.379c1.818,-0 2.726,1.087 2.726,3.398l0,5.968l2.055,-0Z" style="fill:#737373;fill-rule:nonzero;"/><path d="M129.506,93.042l-0,-1.877l-5.375,-0l4.96,-7.074l-0,-1.996l-6.995,-0l-0,1.877l4.742,0l-5.256,7.469l0,1.601l7.924,-0Z" style="fill:#737373;fill-rule:nonzero;"/><path d="M136.738,91.441c-2.055,0 -3.735,-1.798 -3.735,-3.853c0,-2.154 1.68,-3.912 3.735,-3.912c2.272,-0 3.814,1.778 3.814,3.912c-0,2.075 -1.68,3.853 -3.814,3.853Zm5.829,1.601l0,-10.947l-2.055,-0l0,1.541l-0.039,0c-0.85,-1.245 -2.194,-1.837 -3.794,-1.837c-3.221,-0 -5.731,2.45 -5.731,5.947c0,3.162 2.609,5.573 5.81,5.573c1.561,-0 2.944,-0.672 3.715,-1.976l0.039,-0l0,1.699l2.055,-0Zm-2.49,-14.484l-0.869,-1.601l-4.406,2.53l0.829,1.482l4.446,-2.411Z" style="fill:#737373;fill-rule:nonzero;"/><rect x="145.946" y="78.42" width="2.055" height="14.622" style="fill:#737373;fill-rule:nonzero;"/><path d="M152.783,86.877c0.158,-1.877 1.838,-3.201 3.517,-3.201c1.759,-0 3.399,1.343 3.557,3.201l-7.074,-0Zm9.07,1.581c0.059,-0.376 0.059,-0.692 0.059,-1.028c0,-3.142 -2.45,-5.631 -5.671,-5.631c-2.905,-0 -5.513,2.41 -5.513,5.868c-0,2.925 2.49,5.652 5.572,5.652c2.352,-0 4.407,-1.463 5.256,-3.715l-2.055,-0c-0.632,1.166 -1.837,1.837 -3.122,1.837c-1.679,0 -3.122,-1.165 -3.596,-2.983l9.07,-0Z" style="fill:#737373;fill-rule:nonzero;"/><path d="M171.258,93.042l0,-1.877l-5.374,-0l4.959,-7.074l0,-1.996l-6.994,-0l-0,1.877l4.742,0l-5.256,7.469l-0,1.601l7.923,-0Z" style="fill:#737373;fill-rule:nonzero;"/></g><g id="visual-creations" serif:id="visual creations"><path d="M204.394,93.802l4.307,-10.947l-2.193,-0l-2.806,7.825l-0.039,-0l-2.866,-7.825l-2.193,-0l4.347,10.947l1.443,-0Z" style="fill:#808080;fill-rule:nonzero;"/><path d="M212.969,81.59l0,-2.41l-2.055,-0l0,2.41l2.055,0Zm0,12.212l0,-10.947l-2.055,-0l0,10.947l2.055,-0Z" style="fill:#808080;fill-rule:nonzero;"/><path d="M222.612,85.76c-0.059,-1.937 -1.541,-3.201 -3.359,-3.201c-1.798,-0 -3.438,1.284 -3.438,3.22c-0,1.245 0.454,2.411 3.142,3.261c1.284,0.415 1.857,0.909 1.857,1.66c0,0.889 -0.632,1.501 -1.581,1.501c-1.086,0 -1.758,-0.671 -1.857,-1.995l-2.055,-0c-0,2.529 1.897,3.873 3.873,3.873c2.134,-0 3.675,-1.384 3.675,-3.498c0,-2.035 -1.423,-2.964 -2.964,-3.438c-1.087,-0.336 -2.035,-0.613 -2.035,-1.541c-0,-0.633 0.494,-1.166 1.284,-1.166c0.85,-0 1.304,0.533 1.403,1.324l2.055,-0Z" style="fill:#808080;fill-rule:nonzero;"/><path d="M234.942,93.802l0,-10.947l-2.055,-0l0,5.908c0,2.114 -0.968,3.438 -2.865,3.438c-1.877,0 -2.727,-1.106 -2.727,-3.398l0,-5.948l-2.055,-0l0,6.106c0,3.853 2.213,5.118 4.565,5.118c1.442,-0 2.687,-0.534 3.221,-1.463l0.039,0l0,1.186l1.877,-0Z" style="fill:#808080;fill-rule:nonzero;"/><path d="M243.439,92.201c-2.055,0 -3.734,-1.798 -3.734,-3.853c-0,-2.154 1.679,-3.912 3.734,-3.912c2.273,-0 3.814,1.778 3.814,3.912c-0,2.075 -1.68,3.853 -3.814,3.853Zm5.829,1.601l0,-10.947l-2.055,-0l0,1.541l-0.039,0c-0.85,-1.245 -2.194,-1.837 -3.794,-1.837c-3.221,-0 -5.731,2.45 -5.731,5.947c0,3.162 2.609,5.573 5.81,5.573c1.561,-0 2.944,-0.672 3.715,-1.976l0.039,-0l0,1.699l2.055,-0Z" style="fill:#808080;fill-rule:nonzero;"/><rect x="252.647" y="79.18" width="2.055" height="14.622" style="fill:#808080;fill-rule:nonzero;"/><path d="M272.585,90.186c-0.573,1.264 -1.699,2.015 -3.102,2.015c-2.075,0 -3.557,-1.719 -3.557,-3.892c-0,-2.233 1.442,-3.873 3.596,-3.873c1.482,-0 2.47,0.77 3.083,2.055l2.272,-0c-0.652,-2.371 -2.924,-3.932 -5.414,-3.932c-3.201,-0 -5.592,2.568 -5.592,5.868c-0,3.122 2.47,5.652 5.612,5.652c2.43,-0 4.525,-1.423 5.394,-3.893l-2.292,-0Z" style="fill:#808080;fill-rule:nonzero;"/><path d="M279.521,93.802l-0,-6.145c-0,-1.838 0.909,-2.925 2.687,-2.984l-0,-2.114c-1.443,0.079 -2.292,0.553 -2.786,1.284l-0.04,-0l0,-0.988l-1.916,-0l-0,10.947l2.055,-0Z" style="fill:#808080;fill-rule:nonzero;"/><path d="M285.765,87.637c0.158,-1.877 1.837,-3.201 3.517,-3.201c1.759,-0 3.399,1.343 3.557,3.201l-7.074,-0Zm9.069,1.581c0.06,-0.376 0.06,-0.692 0.06,-1.028c-0,-3.142 -2.45,-5.631 -5.671,-5.631c-2.905,-0 -5.513,2.41 -5.513,5.868c-0,2.925 2.489,5.652 5.572,5.652c2.351,-0 4.406,-1.463 5.256,-3.715l-2.055,-0c-0.632,1.166 -1.838,1.837 -3.122,1.837c-1.68,0 -3.122,-1.165 -3.596,-2.983l9.069,-0Z" style="fill:#808080;fill-rule:nonzero;"/><path d="M302.798,92.201c-2.055,0 -3.735,-1.798 -3.735,-3.853c0,-2.154 1.68,-3.912 3.735,-3.912c2.272,-0 3.813,1.778 3.813,3.912c0,2.075 -1.679,3.853 -3.813,3.853Zm5.829,1.601l-0,-10.947l-2.055,-0l-0,1.541l-0.04,0c-0.849,-1.245 -2.193,-1.837 -3.794,-1.837c-3.22,-0 -5.73,2.45 -5.73,5.947c0,3.162 2.608,5.573 5.809,5.573c1.561,-0 2.945,-0.672 3.715,-1.976l0.04,-0l-0,1.699l2.055,-0Z" style="fill:#808080;fill-rule:nonzero;"/><path d="M314.298,93.802l-0,-9.07l1.798,0l0,-1.877l-1.798,-0l-0,-3.675l-2.055,-0l-0,3.675l-1.482,-0l-0,1.877l1.482,0l-0,9.07l2.055,-0Z" style="fill:#808080;fill-rule:nonzero;"/><path d="M320.167,81.59l-0,-2.41l-2.055,-0l-0,2.41l2.055,0Zm-0,12.212l-0,-10.947l-2.055,-0l-0,10.947l2.055,-0Z" style="fill:#808080;fill-rule:nonzero;"/><path d="M334.69,88.407c0.04,-3.477 -2.806,-5.848 -5.829,-5.848c-3.359,-0 -5.987,2.47 -5.987,5.809c-0,3.082 2.746,5.711 5.829,5.711c3.497,-0 5.947,-2.747 5.987,-5.672Zm-2.055,-0.118c-0,2.213 -1.759,3.912 -3.912,3.912c-2.075,0 -3.794,-1.818 -3.794,-3.892c-0,-2.134 1.778,-3.873 3.833,-3.873c2.154,-0 3.873,1.719 3.873,3.853Z" style="fill:#808080;fill-rule:nonzero;"/><path d="M347.119,93.802l-0,-6.56c-0,-3.024 -1.937,-4.683 -4.565,-4.683c-1.264,-0 -2.391,0.415 -3.201,1.462l-0.039,-0l-0,-1.166l-1.917,-0l0,10.947l2.055,-0l0,-5.987c0,-2.055 1.087,-3.379 2.885,-3.379c1.818,-0 2.727,1.087 2.727,3.398l-0,5.968l2.055,-0Z" style="fill:#808080;fill-rule:nonzero;"/><path d="M356.742,85.76c-0.059,-1.937 -1.541,-3.201 -3.359,-3.201c-1.798,-0 -3.438,1.284 -3.438,3.22c-0,1.245 0.454,2.411 3.141,3.261c1.285,0.415 1.858,0.909 1.858,1.66c-0,0.889 -0.632,1.501 -1.581,1.501c-1.087,0 -1.759,-0.671 -1.857,-1.995l-2.055,-0c-0,2.529 1.897,3.873 3.873,3.873c2.134,-0 3.675,-1.384 3.675,-3.498c-0,-2.035 -1.423,-2.964 -2.964,-3.438c-1.087,-0.336 -2.035,-0.613 -2.035,-1.541c-0,-0.633 0.494,-1.166 1.284,-1.166c0.85,-0 1.304,0.533 1.403,1.324l2.055,-0Z" style="fill:#808080;fill-rule:nonzero;"/></g><circle cx="185.214" cy="88.647" r="3.538" style="fill:#4bb3c3;"/><path d="M75.7,58.664c0,-2.607 -2.116,-4.723 -4.723,-4.723l-9.448,-0c-2.607,-0 -4.724,2.116 -4.724,4.723l0,9.644c0,2.607 2.117,4.724 4.724,4.724l9.448,-0c2.607,-0 4.723,-2.117 4.723,-4.724l0,-9.644Z" style="fill:#e97825;"/><path d="M75.747,2.509c0,-0.451 -0.262,-0.86 -0.672,-1.048c-0.409,-0.188 -0.89,-0.12 -1.232,0.173l-5.288,4.54c-0,0 6.559,5.84 7.196,6.153l-0.004,-9.818Z" style="fill:#054f5d;fill-rule:nonzero;"/><path d="M56.806,63.486l18.968,-0.125l-0.021,-46.563l-9.654,-8.349l-9.294,7.441l0.001,47.596Z" style="fill:#4bb3c3;fill-rule:nonzero;"/><clipPath id="_clip1"><path d="M56.806,63.486l18.968,-0.125l-0.021,-46.563l-9.654,-8.349l-9.294,7.441l0.001,47.596Z" clip-rule="nonzero"/></clipPath><g clip-path="url(#_clip1)"><rect x="68.625" y="7.115" width="8.335" height="57.705" style="fill:#1a7d8f;"/></g><rect x="56.877" y="60.71" width="18.899" height="2.776" style="fill:#4f3e3e;"/></g></svg>